<?xml version="1.0" encoding="UTF-8" standalone="no"?>
<!-- Created with Inkscape (http://www.inkscape.org/) -->

<svg
   version="1.1"
   id="svg303"
   width="645.05859"
   height="120.9668"
   viewBox="0 0 645.05859 120.9668"
   sodipodi:docname="zeBrewStore-Design2021.png"
   inkscape:export-filename="../6d8f751f/menupopoutsvg.svg"
   inkscape:export-xdpi="96"
   inkscape:export-ydpi="96"
   xmlns:inkscape="http://www.inkscape.org/namespaces/inkscape"
   xmlns:sodipodi="http://sodipodi.sourceforge.net/DTD/sodipodi-0.dtd"
   xmlns="http://www.w3.org/2000/svg"
   xmlns:svg="http://www.w3.org/2000/svg">
  <defs
     id="defs307" />
  <sodipodi:namedview
     id="namedview305"
     pagecolor="#ffffff"
     bordercolor="#111111"
     borderopacity="1"
     inkscape:showpageshadow="0"
     inkscape:pageopacity="0"
     inkscape:pagecheckerboard="1"
     inkscape:deskcolor="#d1d1d1"
     showgrid="false"
     showguides="false" />
  <g
     inkscape:groupmode="layer"
     inkscape:label="Image"
     id="g309"
     transform="translate(-529.1543,-271.7168)">
    <path
       id="rect419"
       style="fill:#3f4143;fill-opacity:1;stroke:#ffffff;stroke-linecap:round;stroke-linejoin:round;stroke-opacity:0;paint-order:stroke markers fill"
       d="m 560.21289,272.2168 c -16.92856,0 -30.55859,13.63003 -30.55859,30.55859 V 361.625 c 0,16.92856 13.63003,30.55859 30.55859,30.55859 h 582.94331 c 16.9286,0 30.5567,-13.63003 30.5567,-30.55859 v -58.84961 c 0,-16.92856 -13.6281,-30.55859 -30.5567,-30.55859 z m 5.01172,12.53125 h 213.51953 c 12.20215,0 22.02539,9.82324 22.02539,22.02539 v 50.85351 c 0,12.20215 -9.82324,22.02539 -22.02539,22.02539 H 565.22461 c -12.20215,0 -22.02539,-9.82324 -22.02539,-22.02539 v -50.85351 c 0,-12.20215 9.82324,-22.02539 22.02539,-22.02539 z"
       inkscape:export-filename="../32c04aed/baseofitem.svg"
       inkscape:export-xdpi="96"
       inkscape:export-ydpi="96" />
  </g>
</svg>
